<svg width="184" height="59" viewBox="0 0 184 59" fill="none" xmlns="http://www.w3.org/2000/svg">
<path d="M21.3647 30.196C19.9274 30.196 18.6394 29.9627 17.5007 29.496C16.362 29.0293 15.4474 28.3387 14.7567 27.424C14.0847 26.5093 13.73 25.408 13.6927 24.12H18.7887C18.8634 24.848 19.1154 25.408 19.5447 25.8C19.974 26.1733 20.534 26.36 21.2247 26.36C21.934 26.36 22.494 26.2013 22.9047 25.884C23.3154 25.548 23.5207 25.0907 23.5207 24.512C23.5207 24.0267 23.3527 23.6253 23.0167 23.308C22.6994 22.9907 22.298 22.7293 21.8127 22.524C21.346 22.3187 20.674 22.0853 19.7967 21.824C18.5274 21.432 17.4914 21.04 16.6887 20.648C15.886 20.256 15.1954 19.6773 14.6167 18.912C14.038 18.1467 13.7487 17.148 13.7487 15.916C13.7487 14.0867 14.4114 12.6587 15.7367 11.632C17.062 10.5867 18.7887 10.064 20.9167 10.064C23.082 10.064 24.8274 10.5867 26.1527 11.632C27.478 12.6587 28.1874 14.096 28.2807 15.944H23.1007C23.0634 15.3093 22.83 14.8147 22.4007 14.46C21.9714 14.0867 21.4207 13.9 20.7487 13.9C20.17 13.9 19.7034 14.0587 19.3487 14.376C18.994 14.6747 18.8167 15.1133 18.8167 15.692C18.8167 16.3267 19.1154 16.8213 19.7127 17.176C20.31 17.5307 21.2434 17.9133 22.5127 18.324C23.782 18.7533 24.8087 19.164 25.5927 19.556C26.3954 19.948 27.086 20.5173 27.6647 21.264C28.2434 22.0107 28.5327 22.972 28.5327 24.148C28.5327 25.268 28.2434 26.2853 27.6647 27.2C27.1047 28.1147 26.2834 28.8427 25.2007 29.384C24.118 29.9253 22.8394 30.196 21.3647 30.196ZM30.5273 22.188C30.5273 20.564 30.8539 19.1453 31.5073 17.932C32.1793 16.7187 33.1033 15.7853 34.2793 15.132C35.4739 14.4787 36.8366 14.152 38.3673 14.152C40.3273 14.152 41.9606 14.6653 43.2673 15.692C44.5926 16.7187 45.4606 18.1653 45.8713 20.032H40.7753C40.3459 18.8373 39.5153 18.24 38.2833 18.24C37.4059 18.24 36.7059 18.5853 36.1833 19.276C35.6606 19.948 35.3993 20.9187 35.3993 22.188C35.3993 23.4573 35.6606 24.4373 36.1833 25.128C36.7059 25.8 37.4059 26.136 38.2833 26.136C39.5153 26.136 40.3459 25.5387 40.7753 24.344H45.8713C45.4606 26.1733 44.5926 27.6107 43.2673 28.656C41.9419 29.7013 40.3086 30.224 38.3673 30.224C36.8366 30.224 35.4739 29.8973 34.2793 29.244C33.1033 28.5907 32.1793 27.6573 31.5073 26.444C30.8539 25.2307 30.5273 23.812 30.5273 22.188ZM58.0364 14.208C59.8284 14.208 61.2657 14.8053 62.3484 16C63.4311 17.176 63.9724 18.8 63.9724 20.872V30H59.2124V21.516C59.2124 20.4707 58.9417 19.6587 58.4004 19.08C57.8591 18.5013 57.1311 18.212 56.2164 18.212C55.3017 18.212 54.5737 18.5013 54.0324 19.08C53.4911 19.6587 53.2204 20.4707 53.2204 21.516V30H48.4324V9.28H53.2204V16.476C53.7057 15.7853 54.3684 15.2347 55.2084 14.824C56.0484 14.4133 56.9911 14.208 58.0364 14.208ZM74.4116 30.224C72.8809 30.224 71.4996 29.8973 70.2676 29.244C69.0543 28.5907 68.0929 27.6573 67.3836 26.444C66.6929 25.2307 66.3476 23.812 66.3476 22.188C66.3476 20.5827 66.7023 19.1733 67.4116 17.96C68.1209 16.728 69.0916 15.7853 70.3236 15.132C71.5556 14.4787 72.9369 14.152 74.4676 14.152C75.9983 14.152 77.3796 14.4787 78.6116 15.132C79.8436 15.7853 80.8143 16.728 81.5236 17.96C82.2329 19.1733 82.5876 20.5827 82.5876 22.188C82.5876 23.7933 82.2236 25.212 81.4956 26.444C80.7863 27.6573 79.8063 28.5907 78.5556 29.244C77.3236 29.8973 75.9423 30.224 74.4116 30.224ZM74.4116 26.08C75.3263 26.08 76.1009 25.744 76.7356 25.072C77.3889 24.4 77.7156 23.4387 77.7156 22.188C77.7156 20.9373 77.3983 19.976 76.7636 19.304C76.1476 18.632 75.3823 18.296 74.4676 18.296C73.5343 18.296 72.7596 18.632 72.1436 19.304C71.5276 19.9573 71.2196 20.9187 71.2196 22.188C71.2196 23.4387 71.5183 24.4 72.1156 25.072C72.7316 25.744 73.4969 26.08 74.4116 26.08ZM89.9157 9.28V30H85.1277V9.28H89.9157ZM92.4335 22.16C92.4335 20.5547 92.7322 19.1453 93.3295 17.932C93.9455 16.7187 94.7762 15.7853 95.8215 15.132C96.8669 14.4787 98.0335 14.152 99.3215 14.152C100.423 14.152 101.384 14.376 102.206 14.824C103.046 15.272 103.69 15.86 104.138 16.588V14.376H108.926V30H104.138V27.788C103.671 28.516 103.018 29.104 102.178 29.552C101.356 30 100.395 30.224 99.2935 30.224C98.0242 30.224 96.8669 29.8973 95.8215 29.244C94.7762 28.572 93.9455 27.6293 93.3295 26.416C92.7322 25.184 92.4335 23.7653 92.4335 22.16ZM104.138 22.188C104.138 20.9933 103.802 20.0507 103.13 19.36C102.476 18.6693 101.674 18.324 100.722 18.324C99.7695 18.324 98.9575 18.6693 98.2855 19.36C97.6322 20.032 97.3055 20.9653 97.3055 22.16C97.3055 23.3547 97.6322 24.3067 98.2855 25.016C98.9575 25.7067 99.7695 26.052 100.722 26.052C101.674 26.052 102.476 25.7067 103.13 25.016C103.802 24.3253 104.138 23.3827 104.138 22.188ZM117.177 16.98C117.737 16.1213 118.437 15.4493 119.277 14.964C120.117 14.46 121.051 14.208 122.077 14.208V19.276H120.761C119.567 19.276 118.671 19.5373 118.073 20.06C117.476 20.564 117.177 21.46 117.177 22.748V30H112.389V14.376H117.177V16.98ZM139.346 16.672C139.346 17.8107 139.085 18.856 138.562 19.808C138.039 20.7413 137.237 21.4973 136.154 22.076C135.071 22.6547 133.727 22.944 132.122 22.944H129.154V30H124.366V10.344H132.122C133.69 10.344 135.015 10.6147 136.098 11.156C137.181 11.6973 137.993 12.444 138.534 13.396C139.075 14.348 139.346 15.44 139.346 16.672ZM131.758 19.136C132.673 19.136 133.354 18.9213 133.802 18.492C134.25 18.0627 134.474 17.456 134.474 16.672C134.474 15.888 134.25 15.2813 133.802 14.852C133.354 14.4227 132.673 14.208 131.758 14.208H129.154V19.136H131.758ZM146.627 16.98C147.187 16.1213 147.887 15.4493 148.727 14.964C149.567 14.46 150.5 14.208 151.527 14.208V19.276H150.211C149.016 19.276 148.12 19.5373 147.523 20.06C146.925 20.564 146.627 21.46 146.627 22.748V30H141.839V14.376H146.627V16.98ZM160.927 30.224C159.397 30.224 158.015 29.8973 156.783 29.244C155.57 28.5907 154.609 27.6573 153.899 26.444C153.209 25.2307 152.863 23.812 152.863 22.188C152.863 20.5827 153.218 19.1733 153.927 17.96C154.637 16.728 155.607 15.7853 156.839 15.132C158.071 14.4787 159.453 14.152 160.983 14.152C162.514 14.152 163.895 14.4787 165.127 15.132C166.359 15.7853 167.33 16.728 168.039 17.96C168.749 19.1733 169.103 20.5827 169.103 22.188C169.103 23.7933 168.739 25.212 168.011 26.444C167.302 27.6573 166.322 28.5907 165.071 29.244C163.839 29.8973 162.458 30.224 160.927 30.224ZM160.927 26.08C161.842 26.08 162.617 25.744 163.251 25.072C163.905 24.4 164.231 23.4387 164.231 22.188C164.231 20.9373 163.914 19.976 163.279 19.304C162.663 18.632 161.898 18.296 160.983 18.296C160.05 18.296 159.275 18.632 158.659 19.304C158.043 19.9573 157.735 20.9187 157.735 22.188C157.735 23.4387 158.034 24.4 158.631 25.072C159.247 25.744 160.013 26.08 160.927 26.08Z" fill="#10386B"/>
<path d="M17.2527 45.063C16.8327 45.063 16.4547 44.991 16.1187 44.847C15.7827 44.697 15.5187 44.487 15.3267 44.217C15.1347 43.947 15.0387 43.632 15.0387 43.272H16.1367C16.1607 43.542 16.2657 43.764 16.4517 43.938C16.6437 44.112 16.9107 44.199 17.2527 44.199C17.6067 44.199 17.8827 44.115 18.0807 43.947C18.2787 43.773 18.3777 43.551 18.3777 43.281C18.3777 43.071 18.3147 42.9 18.1887 42.768C18.0687 42.636 17.9157 42.534 17.7297 42.462C17.5497 42.39 17.2977 42.312 16.9737 42.228C16.5657 42.12 16.2327 42.012 15.9747 41.904C15.7227 41.79 15.5067 41.616 15.3267 41.382C15.1467 41.148 15.0567 40.836 15.0567 40.446C15.0567 40.086 15.1467 39.771 15.3267 39.501C15.5067 39.231 15.7587 39.024 16.0827 38.88C16.4067 38.736 16.7817 38.664 17.2077 38.664C17.8137 38.664 18.3087 38.817 18.6927 39.123C19.0827 39.423 19.2987 39.837 19.3407 40.365H18.2067C18.1887 40.137 18.0807 39.942 17.8827 39.78C17.6847 39.618 17.4237 39.537 17.0997 39.537C16.8057 39.537 16.5657 39.612 16.3797 39.762C16.1937 39.912 16.1007 40.128 16.1007 40.41C16.1007 40.602 16.1577 40.761 16.2717 40.887C16.3917 41.007 16.5417 41.103 16.7217 41.175C16.9017 41.247 17.1477 41.325 17.4597 41.409C17.8737 41.523 18.2097 41.637 18.4677 41.751C18.7317 41.865 18.9537 42.042 19.1337 42.282C19.3197 42.516 19.4127 42.831 19.4127 43.227C19.4127 43.545 19.3257 43.845 19.1517 44.127C18.9837 44.409 18.7347 44.637 18.4047 44.811C18.0807 44.979 17.6967 45.063 17.2527 45.063ZM20.2813 42.516C20.2813 42.006 20.3833 41.559 20.5873 41.175C20.7973 40.785 21.0853 40.485 21.4513 40.275C21.8173 40.065 22.2373 39.96 22.7113 39.96C23.3113 39.96 23.8063 40.104 24.1963 40.392C24.5923 40.674 24.8593 41.079 24.9973 41.607H23.8903C23.8003 41.361 23.6563 41.169 23.4583 41.031C23.2603 40.893 23.0113 40.824 22.7113 40.824C22.2913 40.824 21.9553 40.974 21.7033 41.274C21.4573 41.568 21.3343 41.982 21.3343 42.516C21.3343 43.05 21.4573 43.467 21.7033 43.767C21.9553 44.067 22.2913 44.217 22.7113 44.217C23.3053 44.217 23.6983 43.956 23.8903 43.434H24.9973C24.8533 43.938 24.5833 44.34 24.1873 44.64C23.7913 44.934 23.2993 45.081 22.7113 45.081C22.2373 45.081 21.8173 44.976 21.4513 44.766C21.0853 44.55 20.7973 44.25 20.5873 43.866C20.3833 43.476 20.2813 43.026 20.2813 42.516ZM28.5848 39.96C28.9628 39.96 29.2988 40.041 29.5928 40.203C29.8928 40.365 30.1268 40.605 30.2948 40.923C30.4688 41.241 30.5558 41.625 30.5558 42.075V45H29.5388V42.228C29.5388 41.784 29.4278 41.445 29.2058 41.211C28.9838 40.971 28.6808 40.851 28.2968 40.851C27.9128 40.851 27.6068 40.971 27.3788 41.211C27.1568 41.445 27.0458 41.784 27.0458 42.228V45H26.0198V38.34H27.0458V40.617C27.2198 40.407 27.4388 40.245 27.7028 40.131C27.9728 40.017 28.2668 39.96 28.5848 39.96ZM34.0156 45.081C33.5476 45.081 33.1246 44.976 32.7466 44.766C32.3686 44.55 32.0716 44.25 31.8556 43.866C31.6396 43.476 31.5316 43.026 31.5316 42.516C31.5316 42.012 31.6426 41.565 31.8646 41.175C32.0866 40.785 32.3896 40.485 32.7736 40.275C33.1576 40.065 33.5866 39.96 34.0606 39.96C34.5346 39.96 34.9636 40.065 35.3476 40.275C35.7316 40.485 36.0346 40.785 36.2566 41.175C36.4786 41.565 36.5896 42.012 36.5896 42.516C36.5896 43.02 36.4756 43.467 36.2476 43.857C36.0196 44.247 35.7076 44.55 35.3116 44.766C34.9216 44.976 34.4896 45.081 34.0156 45.081ZM34.0156 44.19C34.2796 44.19 34.5256 44.127 34.7536 44.001C34.9876 43.875 35.1766 43.686 35.3206 43.434C35.4646 43.182 35.5366 42.876 35.5366 42.516C35.5366 42.156 35.4676 41.853 35.3296 41.607C35.1916 41.355 35.0086 41.166 34.7806 41.04C34.5526 40.914 34.3066 40.851 34.0426 40.851C33.7786 40.851 33.5326 40.914 33.3046 41.04C33.0826 41.166 32.9056 41.355 32.7736 41.607C32.6416 41.853 32.5756 42.156 32.5756 42.516C32.5756 43.05 32.7106 43.464 32.9806 43.758C33.2566 44.046 33.6016 44.19 34.0156 44.19ZM38.6298 38.34V45H37.6038V38.34H38.6298ZM39.6349 42.498C39.6349 42 39.7369 41.559 39.9409 41.175C40.1509 40.791 40.4329 40.494 40.7869 40.284C41.1469 40.068 41.5429 39.96 41.9749 39.96C42.3649 39.96 42.7039 40.038 42.9919 40.194C43.2859 40.344 43.5199 40.533 43.6939 40.761V40.041H44.7289V45H43.6939V44.262C43.5199 44.496 43.2829 44.691 42.9829 44.847C42.6829 45.003 42.3409 45.081 41.9569 45.081C41.5309 45.081 41.1409 44.973 40.7869 44.757C40.4329 44.535 40.1509 44.229 39.9409 43.839C39.7369 43.443 39.6349 42.996 39.6349 42.498ZM43.6939 42.516C43.6939 42.174 43.6219 41.877 43.4779 41.625C43.3399 41.373 43.1569 41.181 42.9289 41.049C42.7009 40.917 42.4549 40.851 42.1909 40.851C41.9269 40.851 41.6809 40.917 41.4529 41.049C41.2249 41.175 41.0389 41.364 40.8949 41.616C40.7569 41.862 40.6879 42.156 40.6879 42.498C40.6879 42.84 40.7569 43.14 40.8949 43.398C41.0389 43.656 41.2249 43.854 41.4529 43.992C41.6869 44.124 41.9329 44.19 42.1909 44.19C42.4549 44.19 42.7009 44.124 42.9289 43.992C43.1569 43.86 43.3399 43.668 43.4779 43.416C43.6219 43.158 43.6939 42.858 43.6939 42.516ZM47.1025 40.761C47.2525 40.509 47.4505 40.314 47.6965 40.176C47.9485 40.032 48.2455 39.96 48.5875 39.96V41.022H48.3265C47.9245 41.022 47.6185 41.124 47.4085 41.328C47.2045 41.532 47.1025 41.886 47.1025 42.39V45H46.0765V40.041H47.1025V40.761ZM51.3306 45.081C50.9406 45.081 50.5896 45.012 50.2776 44.874C49.9716 44.73 49.7286 44.538 49.5486 44.298C49.3686 44.052 49.2726 43.779 49.2606 43.479H50.3226C50.3406 43.689 50.4396 43.866 50.6196 44.01C50.8056 44.148 51.0366 44.217 51.3126 44.217C51.6006 44.217 51.8226 44.163 51.9786 44.055C52.1406 43.941 52.2216 43.797 52.2216 43.623C52.2216 43.437 52.1316 43.299 51.9516 43.209C51.7776 43.119 51.4986 43.02 51.1146 42.912C50.7426 42.81 50.4396 42.711 50.2056 42.615C49.9716 42.519 49.7676 42.372 49.5936 42.174C49.4256 41.976 49.3416 41.715 49.3416 41.391C49.3416 41.127 49.4196 40.887 49.5756 40.671C49.7316 40.449 49.9536 40.275 50.2416 40.149C50.5356 40.023 50.8716 39.96 51.2496 39.96C51.8136 39.96 52.2666 40.104 52.6086 40.392C52.9566 40.674 53.1426 41.061 53.1666 41.553H52.1406C52.1226 41.331 52.0326 41.154 51.8706 41.022C51.7086 40.89 51.4896 40.824 51.2136 40.824C50.9436 40.824 50.7366 40.875 50.5926 40.977C50.4486 41.079 50.3766 41.214 50.3766 41.382C50.3766 41.514 50.4246 41.625 50.5206 41.715C50.6166 41.805 50.7336 41.877 50.8716 41.931C51.0096 41.979 51.2136 42.042 51.4836 42.12C51.8436 42.216 52.1376 42.315 52.3656 42.417C52.5996 42.513 52.8006 42.657 52.9686 42.849C53.1366 43.041 53.2236 43.296 53.2296 43.614C53.2296 43.896 53.1516 44.148 52.9956 44.37C52.8396 44.592 52.6176 44.766 52.3296 44.892C52.0476 45.018 51.7146 45.081 51.3306 45.081ZM56.9032 39.96C57.2812 39.96 57.6172 40.041 57.9112 40.203C58.2112 40.365 58.4452 40.605 58.6132 40.923C58.7872 41.241 58.8742 41.625 58.8742 42.075V45H57.8572V42.228C57.8572 41.784 57.7462 41.445 57.5242 41.211C57.3022 40.971 56.9992 40.851 56.6152 40.851C56.2312 40.851 55.9252 40.971 55.6972 41.211C55.4752 41.445 55.3642 41.784 55.3642 42.228V45H54.3382V38.34H55.3642V40.617C55.5382 40.407 55.7572 40.245 56.0212 40.131C56.2912 40.017 56.5852 39.96 56.9032 39.96ZM60.7049 39.384C60.5189 39.384 60.3629 39.321 60.2369 39.195C60.1109 39.069 60.0479 38.913 60.0479 38.727C60.0479 38.541 60.1109 38.385 60.2369 38.259C60.3629 38.133 60.5189 38.07 60.7049 38.07C60.8849 38.07 61.0379 38.133 61.1639 38.259C61.2899 38.385 61.3529 38.541 61.3529 38.727C61.3529 38.913 61.2899 39.069 61.1639 39.195C61.0379 39.321 60.8849 39.384 60.7049 39.384ZM61.2089 40.041V45H60.1829V40.041H61.2089ZM63.582 40.77C63.756 40.542 63.993 40.35 64.293 40.194C64.593 40.038 64.932 39.96 65.31 39.96C65.742 39.96 66.135 40.068 66.489 40.284C66.849 40.494 67.131 40.791 67.335 41.175C67.539 41.559 67.641 42 67.641 42.498C67.641 42.996 67.539 43.443 67.335 43.839C67.131 44.229 66.849 44.535 66.489 44.757C66.135 44.973 65.742 45.081 65.31 45.081C64.932 45.081 64.596 45.006 64.302 44.856C64.008 44.7 63.768 44.508 63.582 44.28V47.358H62.556V40.041H63.582V40.77ZM66.597 42.498C66.597 42.156 66.525 41.862 66.381 41.616C66.243 41.364 66.057 41.175 65.823 41.049C65.595 40.917 65.349 40.851 65.085 40.851C64.827 40.851 64.581 40.917 64.347 41.049C64.119 41.181 63.933 41.373 63.789 41.625C63.651 41.877 63.582 42.174 63.582 42.516C63.582 42.858 63.651 43.158 63.789 43.416C63.933 43.668 64.119 43.86 64.347 43.992C64.581 44.124 64.827 44.19 65.085 44.19C65.349 44.19 65.595 44.124 65.823 43.992C66.057 43.854 66.243 43.656 66.381 43.398C66.525 43.14 66.597 42.84 66.597 42.498ZM77.5815 38.745V45H76.5555V40.716L74.6475 45H73.9365L72.0195 40.716V45H70.9935V38.745H72.1005L74.2965 43.65L76.4835 38.745H77.5815ZM78.588 42.498C78.588 42 78.69 41.559 78.894 41.175C79.104 40.791 79.386 40.494 79.74 40.284C80.1 40.068 80.496 39.96 80.928 39.96C81.318 39.96 81.657 40.038 81.945 40.194C82.239 40.344 82.473 40.533 82.647 40.761V40.041H83.682V45H82.647V44.262C82.473 44.496 82.236 44.691 81.936 44.847C81.636 45.003 81.294 45.081 80.91 45.081C80.484 45.081 80.094 44.973 79.74 44.757C79.386 44.535 79.104 44.229 78.894 43.839C78.69 43.443 78.588 42.996 78.588 42.498ZM82.647 42.516C82.647 42.174 82.575 41.877 82.431 41.625C82.293 41.373 82.11 41.181 81.882 41.049C81.654 40.917 81.408 40.851 81.144 40.851C80.88 40.851 80.634 40.917 80.406 41.049C80.178 41.175 79.992 41.364 79.848 41.616C79.71 41.862 79.641 42.156 79.641 42.498C79.641 42.84 79.71 43.14 79.848 43.398C79.992 43.656 80.178 43.854 80.406 43.992C80.64 44.124 80.886 44.19 81.144 44.19C81.408 44.19 81.654 44.124 81.882 43.992C82.11 43.86 82.293 43.668 82.431 43.416C82.575 43.158 82.647 42.858 82.647 42.516ZM87.5316 39.96C87.9216 39.96 88.2696 40.041 88.5756 40.203C88.8876 40.365 89.1306 40.605 89.3046 40.923C89.4786 41.241 89.5656 41.625 89.5656 42.075V45H88.5486V42.228C88.5486 41.784 88.4376 41.445 88.2156 41.211C87.9936 40.971 87.6906 40.851 87.3066 40.851C86.9226 40.851 86.6166 40.971 86.3886 41.211C86.1666 41.445 86.0556 41.784 86.0556 42.228V45H85.0296V40.041H86.0556V40.608C86.2236 40.404 86.4366 40.245 86.6946 40.131C86.9586 40.017 87.2376 39.96 87.5316 39.96ZM90.5323 42.498C90.5323 42 90.6343 41.559 90.8383 41.175C91.0483 40.791 91.3303 40.494 91.6843 40.284C92.0443 40.068 92.4403 39.96 92.8723 39.96C93.2623 39.96 93.6013 40.038 93.8893 40.194C94.1833 40.344 94.4173 40.533 94.5913 40.761V40.041H95.6263V45H94.5913V44.262C94.4173 44.496 94.1803 44.691 93.8803 44.847C93.5803 45.003 93.2383 45.081 92.8543 45.081C92.4283 45.081 92.0383 44.973 91.6843 44.757C91.3303 44.535 91.0483 44.229 90.8383 43.839C90.6343 43.443 90.5323 42.996 90.5323 42.498ZM94.5913 42.516C94.5913 42.174 94.5193 41.877 94.3753 41.625C94.2373 41.373 94.0543 41.181 93.8263 41.049C93.5983 40.917 93.3523 40.851 93.0883 40.851C92.8243 40.851 92.5783 40.917 92.3503 41.049C92.1223 41.175 91.9363 41.364 91.7923 41.616C91.6543 41.862 91.5853 42.156 91.5853 42.498C91.5853 42.84 91.6543 43.14 91.7923 43.398C91.9363 43.656 92.1223 43.854 92.3503 43.992C92.5843 44.124 92.8303 44.19 93.0883 44.19C93.3523 44.19 93.5983 44.124 93.8263 43.992C94.0543 43.86 94.2373 43.668 94.3753 43.416C94.5193 43.158 94.5913 42.858 94.5913 42.516ZM98.9719 39.96C99.3559 39.96 99.6949 40.038 99.9889 40.194C100.289 40.344 100.523 40.533 100.691 40.761V40.041H101.726V45.081C101.726 45.537 101.63 45.942 101.438 46.296C101.246 46.656 100.967 46.938 100.601 47.142C100.241 47.346 99.8089 47.448 99.3049 47.448C98.6329 47.448 98.0749 47.289 97.6309 46.971C97.1869 46.659 96.9349 46.233 96.8749 45.693H97.8919C97.9699 45.951 98.1349 46.158 98.3869 46.314C98.6449 46.476 98.9509 46.557 99.3049 46.557C99.7189 46.557 100.052 46.431 100.304 46.179C100.562 45.927 100.691 45.561 100.691 45.081V44.253C100.517 44.487 100.28 44.685 99.9799 44.847C99.6859 45.003 99.3499 45.081 98.9719 45.081C98.5399 45.081 98.1439 44.973 97.7839 44.757C97.4299 44.535 97.1479 44.229 96.9379 43.839C96.7339 43.443 96.6319 42.996 96.6319 42.498C96.6319 42 96.7339 41.559 96.9379 41.175C97.1479 40.791 97.4299 40.494 97.7839 40.284C98.1439 40.068 98.5399 39.96 98.9719 39.96ZM100.691 42.516C100.691 42.174 100.619 41.877 100.475 41.625C100.337 41.373 100.154 41.181 99.9259 41.049C99.6979 40.917 99.4519 40.851 99.1879 40.851C98.9239 40.851 98.6779 40.917 98.4499 41.049C98.2219 41.175 98.0359 41.364 97.8919 41.616C97.7539 41.862 97.6849 42.156 97.6849 42.498C97.6849 42.84 97.7539 43.14 97.8919 43.398C98.0359 43.656 98.2219 43.854 98.4499 43.992C98.6839 44.124 98.9299 44.19 99.1879 44.19C99.4519 44.19 99.6979 44.124 99.9259 43.992C100.154 43.86 100.337 43.668 100.475 43.416C100.619 43.158 100.691 42.858 100.691 42.516ZM107.619 42.399C107.619 42.585 107.607 42.753 107.583 42.903H103.794C103.824 43.299 103.971 43.617 104.235 43.857C104.499 44.097 104.823 44.217 105.207 44.217C105.759 44.217 106.149 43.986 106.377 43.524H107.484C107.334 43.98 107.061 44.355 106.665 44.649C106.275 44.937 105.789 45.081 105.207 45.081C104.733 45.081 104.307 44.976 103.929 44.766C103.557 44.55 103.263 44.25 103.047 43.866C102.837 43.476 102.732 43.026 102.732 42.516C102.732 42.006 102.834 41.559 103.038 41.175C103.248 40.785 103.539 40.485 103.911 40.275C104.289 40.065 104.721 39.96 105.207 39.96C105.675 39.96 106.092 40.062 106.458 40.266C106.824 40.47 107.109 40.758 107.313 41.13C107.517 41.496 107.619 41.919 107.619 42.399ZM106.548 42.075C106.542 41.697 106.407 41.394 106.143 41.166C105.879 40.938 105.552 40.824 105.162 40.824C104.808 40.824 104.505 40.938 104.253 41.166C104.001 41.388 103.851 41.691 103.803 42.075H106.548ZM114.631 39.96C115.021 39.96 115.369 40.041 115.675 40.203C115.987 40.365 116.23 40.605 116.404 40.923C116.584 41.241 116.674 41.625 116.674 42.075V45H115.657V42.228C115.657 41.784 115.546 41.445 115.324 41.211C115.102 40.971 114.799 40.851 114.415 40.851C114.031 40.851 113.725 40.971 113.497 41.211C113.275 41.445 113.164 41.784 113.164 42.228V45H112.147V42.228C112.147 41.784 112.036 41.445 111.814 41.211C111.592 40.971 111.289 40.851 110.905 40.851C110.521 40.851 110.215 40.971 109.987 41.211C109.765 41.445 109.654 41.784 109.654 42.228V45H108.628V40.041H109.654V40.608C109.822 40.404 110.035 40.245 110.293 40.131C110.551 40.017 110.827 39.96 111.121 39.96C111.517 39.96 111.871 40.044 112.183 40.212C112.495 40.38 112.735 40.623 112.903 40.941C113.053 40.641 113.287 40.404 113.605 40.23C113.923 40.05 114.265 39.96 114.631 39.96ZM122.525 42.399C122.525 42.585 122.513 42.753 122.489 42.903H118.7C118.73 43.299 118.877 43.617 119.141 43.857C119.405 44.097 119.729 44.217 120.113 44.217C120.665 44.217 121.055 43.986 121.283 43.524H122.39C122.24 43.98 121.967 44.355 121.571 44.649C121.181 44.937 120.695 45.081 120.113 45.081C119.639 45.081 119.213 44.976 118.835 44.766C118.463 44.55 118.169 44.25 117.953 43.866C117.743 43.476 117.638 43.026 117.638 42.516C117.638 42.006 117.74 41.559 117.944 41.175C118.154 40.785 118.445 40.485 118.817 40.275C119.195 40.065 119.627 39.96 120.113 39.96C120.581 39.96 120.998 40.062 121.364 40.266C121.73 40.47 122.015 40.758 122.219 41.13C122.423 41.496 122.525 41.919 122.525 42.399ZM121.454 42.075C121.448 41.697 121.313 41.394 121.049 41.166C120.785 40.938 120.458 40.824 120.068 40.824C119.714 40.824 119.411 40.938 119.159 41.166C118.907 41.388 118.757 41.691 118.709 42.075H121.454ZM126.036 39.96C126.426 39.96 126.774 40.041 127.08 40.203C127.392 40.365 127.635 40.605 127.809 40.923C127.983 41.241 128.07 41.625 128.07 42.075V45H127.053V42.228C127.053 41.784 126.942 41.445 126.72 41.211C126.498 40.971 126.195 40.851 125.811 40.851C125.427 40.851 125.121 40.971 124.893 41.211C124.671 41.445 124.56 41.784 124.56 42.228V45H123.534V40.041H124.56V40.608C124.728 40.404 124.941 40.245 125.199 40.131C125.463 40.017 125.742 39.96 126.036 39.96ZM130.576 40.878V43.623C130.576 43.809 130.618 43.944 130.702 44.028C130.792 44.106 130.942 44.145 131.152 44.145H131.782V45H130.972C130.51 45 130.156 44.892 129.91 44.676C129.664 44.46 129.541 44.109 129.541 43.623V40.878H128.956V40.041H129.541V38.808H130.576V40.041H131.782V40.878H130.576ZM137.127 45.063C136.707 45.063 136.329 44.991 135.993 44.847C135.657 44.697 135.393 44.487 135.201 44.217C135.009 43.947 134.913 43.632 134.913 43.272H136.011C136.035 43.542 136.14 43.764 136.326 43.938C136.518 44.112 136.785 44.199 137.127 44.199C137.481 44.199 137.757 44.115 137.955 43.947C138.153 43.773 138.252 43.551 138.252 43.281C138.252 43.071 138.189 42.9 138.063 42.768C137.943 42.636 137.79 42.534 137.604 42.462C137.424 42.39 137.172 42.312 136.848 42.228C136.44 42.12 136.107 42.012 135.849 41.904C135.597 41.79 135.381 41.616 135.201 41.382C135.021 41.148 134.931 40.836 134.931 40.446C134.931 40.086 135.021 39.771 135.201 39.501C135.381 39.231 135.633 39.024 135.957 38.88C136.281 38.736 136.656 38.664 137.082 38.664C137.688 38.664 138.183 38.817 138.567 39.123C138.957 39.423 139.173 39.837 139.215 40.365H138.081C138.063 40.137 137.955 39.942 137.757 39.78C137.559 39.618 137.298 39.537 136.974 39.537C136.68 39.537 136.44 39.612 136.254 39.762C136.068 39.912 135.975 40.128 135.975 40.41C135.975 40.602 136.032 40.761 136.146 40.887C136.266 41.007 136.416 41.103 136.596 41.175C136.776 41.247 137.022 41.325 137.334 41.409C137.748 41.523 138.084 41.637 138.342 41.751C138.606 41.865 138.828 42.042 139.008 42.282C139.194 42.516 139.287 42.831 139.287 43.227C139.287 43.545 139.2 43.845 139.026 44.127C138.858 44.409 138.609 44.637 138.279 44.811C137.955 44.979 137.571 45.063 137.127 45.063ZM144.961 40.041L141.919 47.331H140.857L141.865 44.919L139.912 40.041H141.055L142.45 43.821L143.899 40.041H144.961ZM147.536 45.081C147.146 45.081 146.795 45.012 146.483 44.874C146.177 44.73 145.934 44.538 145.754 44.298C145.574 44.052 145.478 43.779 145.466 43.479H146.528C146.546 43.689 146.645 43.866 146.825 44.01C147.011 44.148 147.242 44.217 147.518 44.217C147.806 44.217 148.028 44.163 148.184 44.055C148.346 43.941 148.427 43.797 148.427 43.623C148.427 43.437 148.337 43.299 148.157 43.209C147.983 43.119 147.704 43.02 147.32 42.912C146.948 42.81 146.645 42.711 146.411 42.615C146.177 42.519 145.973 42.372 145.799 42.174C145.631 41.976 145.547 41.715 145.547 41.391C145.547 41.127 145.625 40.887 145.781 40.671C145.937 40.449 146.159 40.275 146.447 40.149C146.741 40.023 147.077 39.96 147.455 39.96C148.019 39.96 148.472 40.104 148.814 40.392C149.162 40.674 149.348 41.061 149.372 41.553H148.346C148.328 41.331 148.238 41.154 148.076 41.022C147.914 40.89 147.695 40.824 147.419 40.824C147.149 40.824 146.942 40.875 146.798 40.977C146.654 41.079 146.582 41.214 146.582 41.382C146.582 41.514 146.63 41.625 146.726 41.715C146.822 41.805 146.939 41.877 147.077 41.931C147.215 41.979 147.419 42.042 147.689 42.12C148.049 42.216 148.343 42.315 148.571 42.417C148.805 42.513 149.006 42.657 149.174 42.849C149.342 43.041 149.429 43.296 149.435 43.614C149.435 43.896 149.357 44.148 149.201 44.37C149.045 44.592 148.823 44.766 148.535 44.892C148.253 45.018 147.92 45.081 147.536 45.081ZM151.74 40.878V43.623C151.74 43.809 151.782 43.944 151.866 44.028C151.956 44.106 152.106 44.145 152.316 44.145H152.946V45H152.136C151.674 45 151.32 44.892 151.074 44.676C150.828 44.46 150.705 44.109 150.705 43.623V40.878H150.12V40.041H150.705V38.808H151.74V40.041H152.946V40.878H151.74ZM158.437 42.399C158.437 42.585 158.425 42.753 158.401 42.903H154.612C154.642 43.299 154.789 43.617 155.053 43.857C155.317 44.097 155.641 44.217 156.025 44.217C156.577 44.217 156.967 43.986 157.195 43.524H158.302C158.152 43.98 157.879 44.355 157.483 44.649C157.093 44.937 156.607 45.081 156.025 45.081C155.551 45.081 155.125 44.976 154.747 44.766C154.375 44.55 154.081 44.25 153.865 43.866C153.655 43.476 153.55 43.026 153.55 42.516C153.55 42.006 153.652 41.559 153.856 41.175C154.066 40.785 154.357 40.485 154.729 40.275C155.107 40.065 155.539 39.96 156.025 39.96C156.493 39.96 156.91 40.062 157.276 40.266C157.642 40.47 157.927 40.758 158.131 41.13C158.335 41.496 158.437 41.919 158.437 42.399ZM157.366 42.075C157.36 41.697 157.225 41.394 156.961 41.166C156.697 40.938 156.37 40.824 155.98 40.824C155.626 40.824 155.323 40.938 155.071 41.166C154.819 41.388 154.669 41.691 154.621 42.075H157.366ZM165.45 39.96C165.84 39.96 166.188 40.041 166.494 40.203C166.806 40.365 167.049 40.605 167.223 40.923C167.403 41.241 167.493 41.625 167.493 42.075V45H166.476V42.228C166.476 41.784 166.365 41.445 166.143 41.211C165.921 40.971 165.618 40.851 165.234 40.851C164.85 40.851 164.544 40.971 164.316 41.211C164.094 41.445 163.983 41.784 163.983 42.228V45H162.966V42.228C162.966 41.784 162.855 41.445 162.633 41.211C162.411 40.971 162.108 40.851 161.724 40.851C161.34 40.851 161.034 40.971 160.806 41.211C160.584 41.445 160.473 41.784 160.473 42.228V45H159.447V40.041H160.473V40.608C160.641 40.404 160.854 40.245 161.112 40.131C161.37 40.017 161.646 39.96 161.94 39.96C162.336 39.96 162.69 40.044 163.002 40.212C163.314 40.38 163.554 40.623 163.722 40.941C163.872 40.641 164.106 40.404 164.424 40.23C164.742 40.05 165.084 39.96 165.45 39.96Z" fill="#10386B"/>
</svg>
